# xmcd CD database file
#
# Track frame offsets:
#	150
#	24195
#	50101
#	78231
#	95904
#	122181
#	148065
#	174154
#	192104
#	217054
#
# Disc length: 3254 seconds
#
# Revision: 0
# Processed by: cddbd v1.5.2PL0 Copyright (c) Steve Scherf et al.
# Submitted via: CDex 1.79
#
DISCID=8c0cb40a
DTITLE=Jaime Dolce - Elevation Blues
DYEAR=1900
DGENRE=Blues
TTITLE0=ME AND THE DEVIL BLUES
TTITLE1=TRY A LITTLE
TTITLE2=PEOPLE GET FUNNY
TTITLE3=HOME
TTITLE4=THE BALLAD OF
TTITLE5=PEACE ON FACE BOOK
TTITLE6=ELEVATION BLUES
TTITLE7=ME AND YOU BLUES
TTITLE8=TRAVELING MAN
TTITLE9=I AM THE WALRUS
EXTD=
EXTT0=
EXTT1=
EXTT2=
EXTT3=
EXTT4=
EXTT5=
EXTT6=
EXTT7=
EXTT8=
EXTT9=
PLAYORDER=
